<?xml version="1.0" standalone="no"?>
<!DOCTYPE svg PUBLIC "-//W3C//DTD SVG 20010904//EN"
 "http://www.w3.org/TR/2001/REC-SVG-20010904/DTD/svg10.dtd">
<svg version="1.0" xmlns="http://www.w3.org/2000/svg"
 width="300.000000pt" height="300.000000pt" viewBox="0 0 300.000000 300.000000"
 preserveAspectRatio="xMidYMid meet">
<metadata>
Created by potrace 1.14, written by Peter Selinger 2001-2017
</metadata>
<g transform="translate(0.000000,300.000000) scale(0.100000,-0.100000)"
fill="#000000" stroke="none">
<path d="M1875 2971 c-80 -27 -110 -43 -175 -92 -27 -20 -43 -26 -70 -22 -156
18 -388 -11 -536 -67 -16 -6 -30 -11 -32 -11 -1 1 -25 -11 -54 -25 -48 -24
-55 -25 -92 -13 -59 18 -72 20 -166 24 -158 6 -281 -45 -400 -166 -75 -76
-132 -147 -158 -198 -30 -57 -7 -166 45 -213 28 -26 88 -48 128 -48 40 0 100
22 127 47 17 15 17 14 4 -33 -41 -141 -60 -358 -41 -454 2 -14 7 -38 10 -55
29 -150 156 -322 287 -390 32 -17 59 -37 59 -45 3 -27 7 -55 10 -70 9 -37
-157 -2 -202 42 -88 89 -253 50 -301 -71 -14 -35 -11 -106 6 -140 46 -89 199
-183 337 -207 79 -15 259 -7 289 11 4 3 16 -7 26 -22 29 -41 150 -163 162
-163 19 0 42 -42 32 -59 -16 -32 -14 -167 5 -251 1 -3 11 -29 24 -57 20 -46
27 -53 52 -53 16 0 29 -3 29 -8 0 -4 12 -20 26 -35 14 -15 24 -35 23 -45 -3
-34 1 -43 31 -60 58 -36 147 -23 210 30 55 46 73 144 39 212 -10 22 -23 42
-28 45 -20 13 -51 78 -51 107 l0 31 63 2 c113 4 192 20 296 62 58 23 76 27 83
17 13 -21 9 -83 -7 -121 -39 -95 -2 -197 88 -241 96 -48 199 -12 250 89 48 97
63 256 33 353 -6 16 0 18 49 18 44 -1 54 -4 51 -16 -16 -61 -16 -87 3 -104 37
-34 77 10 83 89 2 35 6 38 75 70 63 29 126 69 158 100 36 34 47 123 22 171
-30 58 -104 99 -157 89 -14 -3 -22 5 -30 31 -6 19 -20 39 -30 44 -41 22 -71
-21 -51 -74 16 -39 15 -42 -22 -65 -34 -21 -82 -27 -131 -16 -43 9 -44 10 -33
63 l10 49 87 42 c143 69 290 173 359 257 32 38 51 90 51 139 0 127 -131 213
-254 166 -15 -6 -53 -36 -84 -67 -47 -48 -149 -124 -167 -124 -14 0 -2 29 21
51 27 25 98 135 100 153 0 6 -5 20 -11 31 -14 26 9 115 30 115 44 0 50 167 10
279 -8 23 -14 44 -14 46 2 32 -87 212 -145 295 -51 72 -51 71 -20 60 72 -28
168 6 216 75 32 48 41 96 27 149 -16 60 -50 97 -141 151 -46 28 -84 53 -86 58
-2 4 -11 7 -21 7 -9 0 -21 4 -26 9 -22 21 -126 43 -215 46 -82 3 -106 0 -175
-24z"/>
<path d="M2657 598 c-11 -8 -19 -31 -21 -63 -3 -27 -7 -62 -10 -77 -5 -22 -1
-31 17 -43 14 -8 31 -13 40 -10 18 8 41 60 32 74 -3 6 -2 11 3 11 13 0 8 86
-7 104 -16 19 -31 20 -54 4z"/>
</g>
</svg>
